<?xml version="1.0" standalone="no"?>
<!DOCTYPE svg PUBLIC "-//W3C//DTD SVG 1.1//EN" "http://www.w3.org/Graphics/SVG/1.1/DTD/svg11.dtd">
<svg xmlns="http://www.w3.org/2000/svg">
<defs >
<font id="Alexandria" horiz-adv-x="569" ><font-face
    font-family="Alexandria ExtraBold"
    units-per-em="1000"
    panose-1="0 0 0 0 0 0 0 0 0 0"
    ascent="968"
    descent="-251"
    alphabetic="0" />
<glyph unicode=" " horiz-adv-x="270" />
<glyph unicode="!" horiz-adv-x="276" d="M45 699H237V517L202 250H81L45 517V699ZM138 180Q179 180 205 154T232 86Q232 44 206 18T138 -8Q96 -8 70 18T44 86Q44 128 70 154T138 180Z" />
<glyph unicode="&quot;" horiz-adv-x="478" d="M60 701H211V411H60V701ZM267 701H418V411H267V701Z" />
<glyph unicode="#" horiz-adv-x="741" d="M26 284H699L682 146H9L26 284ZM59 546H732L716 409H43L59 546ZM210 701H354L267 0H123L210 701ZM474 701H619L532 0H387L474 701Z" />
<glyph unicode="$" horiz-adv-x="655" d="M266 857H415V590H266V857ZM266 108H415V-160H266V108ZM563 475Q527 496 484 514T401 543T330 554Q304 554 288 544T272 513Q272 490 291 476T344 451T416 431T494 405T565 366T618 305T638 212Q638 136 599 87T494 13T349
-12Q289 -12 228 2T112 41T12 102L90 260Q126 229 173 205T268 166T351 151Q385 151 404 163T423 201Q423 224 403 238T351 263T279 283T201 307T129 345T77 404T57 494Q57 562 93 612T194 690T347 717Q427 717 505 695T640 635L563 475Z" />
<glyph unicode="%" horiz-adv-x="1005" d="M218 704Q309 704 363 647T418 491Q418 393 364 335T218 277Q157 277 112 303T42 377T17 491Q17 589 71 646T218 704ZM218 597Q184 597 165 569T145 491Q145 442 164 413T218 384Q252 384 271 413T291 491Q291 540 272
568T218 597ZM680 701H816L324 0H187L680 701ZM788 423Q879 423 933 366T988 210Q988 112 934 54T788 -4Q727 -4 682 22T612 96T587 210Q587 308 641 365T788 423ZM788 316Q754 316 735 288T715 210Q715 161 734 132T788 103Q822 103 841 132T861 210Q861 259 842
287T788 316Z" />
<glyph unicode="&amp;" horiz-adv-x="697" d="M650 274Q618 187 566 124T446 26T302 -9Q230 -9 174 17T86 91T54 198Q54 252 78 290T142 355T225 403T307 444T371 488T396 545Q396 568 382 582T343 597Q318 597 304 580T289 536Q289 504 308 466T374 375T497 247T690
63L588 -35Q480 69 402 146T271 280T189 380T145 460T132 535Q132 589 158 628T230 688T341 710Q404 710 451 689T525 632T553 547Q553 497 529 461T467 399T386 352T305 311T243 268T218 213Q218 188 230 170T263 141T309 131Q356 131 398 161T472 244T523 365L650
274Z" />
<glyph unicode="&apos;" horiz-adv-x="271" d="M60 701H211V411H60V701Z" />
<glyph unicode="(" horiz-adv-x="358" d="M363 742Q308 653 275 542T241 309Q241 188 274 77T363 -124H183Q120 -35 86 76T52 309Q52 430 86 541T183 742H363Z" />
<glyph unicode=")" horiz-adv-x="358" d="M-5 742H175Q239 653 272 542T306 309Q306 188 273 77T175 -124H-5Q50 -35 83 76T117 309Q117 430 84 541T-5 742Z" />
<glyph unicode="*" horiz-adv-x="394" d="M147 719H247L245 627L323 674L373 588L291 545L373 500L323 413L244 461L247 370H147L150 462L71 415L21 500L102 545L21 588L71 676L149 627L147 719Z" />
<glyph unicode="+" horiz-adv-x="515" d="M31 391H484V265H31V391ZM195 555H321V101H195V555Z" />
<glyph unicode="," horiz-adv-x="254" d="M156 -6Q93 -9 64 19T34 86Q34 128 61 154T129 180Q166 180 194 157T222 87Q222 66 215 48T197 13L109 -126H14L100 86L156 -6Z" />
<glyph unicode="-" horiz-adv-x="377" d="M52 371H325V245H52V371Z" />
<glyph unicode="." horiz-adv-x="255" d="M128 180Q169 180 195 154T222 86Q222 44 196 18T128 -8Q86 -8 60 18T33 86Q33 128 59 154T128 180Z" />
<glyph unicode="/" horiz-adv-x="364" d="M283 808H452L125 -107H-44L283 808Z" />
<glyph unicode="0" horiz-adv-x="701" d="M352 707Q504 707 586 615T668 351Q668 179 586 86T352 -7Q199 -7 117 86T35 351Q35 523 117 615T352 707ZM352 556Q296 556 272 510T248 351Q248 239 272 192T352 145Q407 145 430 192T454 351Q454 464 431 510T352 556Z" />
<glyph unicode="1" horiz-adv-x="415" d="M-22 701H314V0H106V626L196 535H-22V701Z" />
<glyph unicode="2" horiz-adv-x="613" d="M287 391Q313 418 330 445T347 493Q347 517 331 529T284 542Q242 542 192 518T91 453L13 603Q85 653 160 681T315 710Q388 710 444 687T532 622T565 524Q565 465 526 407T428 288L238 98L212 162H580V0H38L37 133L287 391Z" />
<glyph unicode="3" horiz-adv-x="609" d="M405 416Q483 402 532 352T582 222Q582 154 547 102T447 20T293 -9Q214 -9 138 15T9 80L84 222Q129 184 178 165T277 146Q310 146 332 154T366 180T378 221Q378 257 352 276T276 296H151V405L366 611L391 549H46V702H548V583L303
363L282 440L405 416Z" />
<glyph unicode="4" horiz-adv-x="611" d="M-6 143V280L179 701H375L168 213L113 295H577V143H-6ZM302 437H492V0H302V437Z" />
<glyph unicode="5" horiz-adv-x="628" d="M274 357L177 447Q211 448 240 448T291 448T321 448Q405 448 467 422T563 348T597 236Q597 162 561 107T460 22T305 -9Q233 -9 156 16T21 81L97 225Q138 191 185 169T282 146Q326 146 349 166T373 221Q373 256 350 274T279
293Q267 293 242 293T186 293T128 292T84 291V701H565V539H184L274 630V357Z" />
<glyph unicode="6" horiz-adv-x="628" d="M492 511Q463 534 428 545T351 557Q302 557 269 538T220 484T204 397Q228 428 266 446T357 464Q425 464 474 435T551 355T579 235Q579 160 546 105T455 21T317 -9Q223 -9 155 33T51 154T14 341Q14 453 54 536T167 664T339
710Q400 710 462 694T568 650L492 511ZM311 319Q283 319 264 308T234 279T224 234Q224 216 229 201T244 174T271 156T309 150Q337 150 355 160T384 189T394 236Q394 275 373 297T311 319Z" />
<glyph unicode="7" horiz-adv-x="596" d="M14 701H584V561L331 0H112L392 623L445 539H107L198 630V441H14V701Z" />
<glyph unicode="8" horiz-adv-x="630" d="M296 710Q373 710 429 687T517 620T549 517Q549 475 528 437T472 375Q524 350 554 302T585 198Q585 135 550 89T449 17T297 -9Q210 -9 146 16T45 87T9 194Q9 252 43 301T132 375Q93 401 70 441T46 523Q46 581 76 622T163
687T296 710ZM297 293Q252 293 228 273T204 215Q204 179 228 160T297 140Q342 140 366 159T391 215Q391 252 367 272T297 293ZM297 574Q259 574 239 557T218 506Q218 474 238 458T297 441Q335 441 355 457T376 506Q376 540 356 557T297 574Z" />
<glyph unicode="9" horiz-adv-x="627" d="M102 190Q130 168 165 157T241 145Q291 145 324 163T373 218T389 304Q365 274 327 256T236 237Q169 237 120 265T43 346T15 467Q15 541 47 595T139 680T277 710Q371 710 438 668T542 547T579 361Q579 249 539 166T425
37T253 -9Q194 -9 132 7T26 51L102 190ZM283 551Q257 551 239 542T210 513T200 466Q200 426 220 405T282 383Q311 383 330 393T359 423T369 468Q369 486 364 501T348 527T322 545T283 551Z" />
<glyph unicode=":" horiz-adv-x="255" d="M128 477Q169 477 195 451T222 383Q222 341 196 315T128 289Q86 289 60 315T33 383Q33 425 59 451T128 477ZM128 180Q169 180 195 154T222 86Q222 44 196 18T128 -8Q86 -8 60 18T33 86Q33 128 59 154T128 180Z" />
<glyph unicode=";" horiz-adv-x="255" d="M128 477Q169 477 195 451T222 383Q222 341 196 315T128 289Q86 289 60 315T33 383Q33 425 59 451T128 477ZM156 -6Q93 -9 64 19T34 86Q34 128 61 154T129 180Q166 180 194 157T222 87Q222 66 215 48T197 13L109 -126H14L100
86L156 -6Z" />
<glyph unicode="&lt;" horiz-adv-x="515" d="M484 589V448L161 324L484 199V58L31 243V404L484 589Z" />
<glyph unicode="=" horiz-adv-x="515" d="M31 500H484V374H31V500ZM31 282H484V156H31V282Z" />
<glyph unicode="&gt;" horiz-adv-x="515" d="M31 67V208L354 332L31 457V598L484 413V252L31 67Z" />
<glyph unicode="?" horiz-adv-x="486" d="M21 464Q22 579 85 643T260 707Q330 707 380 686T457 626T484 529Q484 492 472 464T440 414T399 374T357 336T325 295T313 245H163Q163 283 172 310T197 358T229 395T261 426T285 458T295 496Q295 523 282 535T241 548Q209
548 193 528T176 464H21ZM234 180Q276 180 302 154T329 87Q329 44 303 18T234 -8Q193 -8 167 18T140 87Q140 128 166 154T234 180Z" />
<glyph unicode="@" horiz-adv-x="888" d="M656 162Q656 136 665 126T690 116Q709 116 726 135T755 190T766 272Q766 342 745 402T684 508T584 578T450 604Q383 604 323 578T218 505T148 398T122 268Q122 200 146 142T213 40T314 -27T438 -51Q481 -51 531 -37T624
11L673 -72Q644 -95 604 -112T521 -138T438 -147Q349 -147 273 -116T139 -29T51 103T19 268Q19 358 52 437T145 574T282 666T450 699Q540 699 616 668T749 579T837 444T869 275Q869 202 844 147T776 61T677 31Q632 31 601 49T559 106L557 116Q529 76 493 59T417
41Q363 41 315 70T236 150T205 271Q205 334 229 387T298 472T403 504Q434 504 458 495T501 472T527 446V492H656V162ZM429 385Q404 385 386 370T357 331T347 276Q347 244 357 217T386 174T431 157Q459 157 478 173T508 216T518 275Q518 305 508 330T478 370T429
385Z" />
<glyph unicode="A" horiz-adv-x="786" d="M291 701H505L794 0H572L392 493L206 0H-8L291 701ZM183 264H588V112H183V264Z" />
<glyph unicode="B" horiz-adv-x="720" d="M403 701Q486 701 546 679T639 618T672 524Q672 471 640 430T553 373Q618 359 656 311T694 196Q694 136 660 92T565 24T418 0H59V701H403ZM392 426Q422 426 440 442T459 487Q459 515 441 530T392 545H266V426H392ZM392
156Q431 155 455 173T479 222Q479 250 455 267T392 283H266V156H392Z" />
<glyph unicode="C" horiz-adv-x="690" d="M566 446Q533 490 488 515T399 541Q364 541 334 527T280 488T245 429T232 355Q232 315 244 281T280 221T333 182T399 168Q440 168 485 190T566 250L686 122Q648 81 599 50T496 3T389 -14Q308 -14 241 13T124 90T47 206T19
353Q19 431 47 496T126 611T246 687T396 714Q450 714 503 699T603 655T686 589L566 446Z" />
<glyph unicode="D" horiz-adv-x="762" d="M366 701Q452 701 521 676T639 605T716 495T743 351Q743 272 716 208T638 97T517 25T359 0H59V701H366ZM372 163Q408 163 436 176T486 214T519 273T531 349Q531 391 519 425T485 485T431 524T362 537H267V163H372Z" />
<glyph unicode="E" horiz-adv-x="683" d="M59 701H632V541H267V431H598V271H267V160H642V0H59V701Z" />
<glyph unicode="F" horiz-adv-x="619" d="M59 701H603V541H267V401H579V241H267V0H59V701Z" />
<glyph unicode="G" horiz-adv-x="740" d="M588 464Q552 499 504 520T409 541Q371 541 339 527T283 487T246 427T232 351Q232 310 245 275T283 214T340 174T411 159Q446 159 492 177T578 224L696 78Q658 51 607 30T501 -2T396 -14Q315 -14 247 13T127 90T47 206T19
351Q19 429 48 495T130 610T254 687T410 714Q464 714 518 701T620 664T706 606L588 464ZM517 363H696V78H517V363Z" />
<glyph unicode="H" horiz-adv-x="783" d="M59 701H267V421H516V701H724V0H516V261H267V0H59V701Z" />
<glyph unicode="I" horiz-adv-x="326" d="M59 701H267V0H59V701Z" />
<glyph unicode="J" horiz-adv-x="554" d="M507 232Q507 117 438 54T252 -9Q172 -9 108 22T-7 108L88 245Q128 205 167 186T235 166Q263 166 280 184T297 237V535H59V701H507V232Z" />
<glyph unicode="K" horiz-adv-x="761" d="M59 701H267V420L502 701H742L267 172V0H59V701ZM473 438L758 0H509L334 275L473 438Z" />
<glyph unicode="L" horiz-adv-x="574" d="M59 701H267V174H561V0H59V701Z" />
<glyph unicode="M" horiz-adv-x="939" d="M59 701H282L470 312L657 701H880V0H697V416L537 69H402L242 416V0H59V701Z" />
<glyph unicode="N" horiz-adv-x="783" d="M59 701H236L589 237L534 218V701H724V0H547L195 462L250 481V0H59V701Z" />
<glyph unicode="O" horiz-adv-x="802" d="M401 714Q484 714 553 687T674 611T754 496T783 352Q783 274 755 207T675 90T554 14T401 -14Q318 -14 249 13T128 90T48 206T19 352Q19 431 47 497T127 611T248 687T401 714ZM404 541Q369 541 338 527T283 487T246 427T232
351Q232 310 246 275T283 214T338 174T404 159Q438 159 468 173T521 214T557 275T570 351Q570 392 557 426T521 487T468 527T404 541Z" />
<glyph unicode="P" horiz-adv-x="683" d="M377 701Q513 701 587 636T662 453Q662 327 588 258T377 188H176L267 279V0H59V701H377ZM367 349Q414 349 439 374T465 447Q465 492 440 516T367 541H176L267 631V258L176 349H367Z" />
<glyph unicode="Q" horiz-adv-x="805" d="M540 51Q556 20 579 1T629 -19Q652 -19 683 -6T745 31L815 -94Q775 -129 718 -150T606 -172Q528 -172 467 -126T376 -2L540 51ZM401 714Q484 714 553 687T674 611T754 496T783 352Q783 274 755 207T675 90T554 14T401
-14Q318 -14 249 13T128 90T48 206T19 352Q19 431 47 497T127 611T248 687T401 714ZM404 541Q369 541 338 527T283 487T246 427T232 351Q232 310 246 275T283 214T338 174T404 159Q438 159 468 173T521 214T557 275T570 351Q570 392 557 426T521 487T468 527T404
541Z" />
<glyph unicode="R" horiz-adv-x="725" d="M386 701Q528 701 605 636T682 453Q682 327 605 258T386 188H267V0H59V701H386ZM386 349Q433 349 458 374T484 447Q484 492 459 516T386 541H267V349H386ZM340 264H542L706 0H470L340 264Z" />
<glyph unicode="S" horiz-adv-x="655" d="M563 475Q527 496 484 514T401 543T330 554Q304 554 288 544T272 513Q272 490 291 476T344 451T416 431T494 405T565 366T618 305T638 212Q638 136 599 87T494 13T349 -12Q289 -12 228 2T112 41T12 102L90 260Q126 229
173 205T268 166T351 151Q385 151 404 163T423 201Q423 224 403 238T351 263T279 283T201 307T129 345T77 404T57 494Q57 562 93 612T194 690T347 717Q427 717 505 695T640 635L563 475Z" />
<glyph unicode="T" horiz-adv-x="628" d="M6 701H622V535H418V0H209V535H6V701Z" />
<glyph unicode="U" horiz-adv-x="745" d="M256 290Q256 230 291 195T375 159Q425 159 457 194T489 290V701H697V290Q697 198 658 130T546 24T375 -14Q276 -14 203 23T89 129T48 290V701H256V290Z" />
<glyph unicode="V" horiz-adv-x="748" d="M-3 701H219L379 216L539 701H752L481 0H265L-3 701Z" />
<glyph unicode="W" horiz-adv-x="1133" d="M-3 701H219L367 129H323L470 701H673L821 129H777L923 701H1136L899 0H685L544 535H590L445 0H232L-3 701Z" />
<glyph unicode="X" horiz-adv-x="756" d="M15 701H257L373 518L490 701H735L506 366L756 0H506L373 200L242 0H-1L247 357L15 701Z" />
<glyph unicode="Y" horiz-adv-x="702" d="M-8 701H200L353 415L502 701H710L365 47H339L-8 701ZM249 312H457V0H249V312Z" />
<glyph unicode="Z" horiz-adv-x="679" d="M36 701H649V569L301 162H656V0H24V131L372 539H36V701Z" />
<glyph unicode="[" horiz-adv-x="370" d="M60 742H358V593H240V25H358V-124H60V742Z" />
<glyph unicode="\" horiz-adv-x="364" d="M82 808L408 -107H239L-88 808H82Z" />
<glyph unicode="]" horiz-adv-x="370" d="M310 742V-124H12V25H131V593H12V742H310Z" />
<glyph unicode="^" horiz-adv-x="593" d="M562 141H421L297 415L172 141H31L216 524H377L562 141Z" />
<glyph unicode="_" horiz-adv-x="592" d="M0 -95H592V-204H0V-95Z" />
<glyph unicode="`" horiz-adv-x="374" d="M452 775L561 605L428 595L293 717L452 775Z" />
<glyph unicode="a" horiz-adv-x="607" d="M271 228Q241 228 226 216T210 177Q210 152 226 138T271 123Q292 123 310 130T342 149T363 179L388 107Q368 52 321 22T204 -9Q146 -9 105 12T42 72T20 162Q20 241 74 283T230 327H381V228H271ZM363 329Q363 363 339 382T269
401Q236 401 193 391T105 362L55 496Q100 514 144 527T231 546T317 552Q432 552 496 500T561 353V0H363V329Z" />
<glyph unicode="b" horiz-adv-x="688" d="M417 551Q493 551 549 516T637 418T669 269Q669 186 639 124T553 28T422 -7Q356 -7 308 27T233 123T206 270Q206 356 231 419T304 516T417 551ZM366 395Q337 395 315 380T281 338T268 274Q268 238 280 211T315 168T366
153Q396 153 418 168T453 210T465 274Q465 310 453 337T419 380T366 395ZM66 742H268V0H66V742Z" />
<glyph unicode="c" horiz-adv-x="562" d="M400 333Q386 359 364 373T313 387Q286 387 266 373T234 332T223 271Q223 235 234 209T265 168T313 153Q342 153 364 167T399 213L556 134Q525 67 459 30T302 -7Q217 -7 154 27T55 124T19 270Q19 354 54 417T154 516T304
551Q389 551 454 514T555 409L400 333Z" />
<glyph unicode="d" horiz-adv-x="688" d="M266 551Q333 551 381 517T456 421T483 274Q483 188 457 125T384 28T271 -7Q195 -7 139 27T51 126T19 275Q19 359 49 420T136 516T266 551ZM322 391Q292 391 270 376T235 334T223 270Q223 233 235 206T269 164T322 148Q352
148 374 163T408 206T420 270Q420 306 408 333T374 376T322 391ZM420 742H622V0H420V742Z" />
<glyph unicode="e" horiz-adv-x="609" d="M390 322Q391 350 381 370T352 402T308 414Q278 414 258 397T226 349T215 281Q215 237 229 206T269 159T329 142Q395 142 449 194L554 91Q512 44 451 19T312 -7Q221 -7 156 27T55 124T19 270Q19 355 55 418T155 516T306
551Q402 551 467 511T563 397T589 223H188V322H390Z" />
<glyph unicode="f" horiz-adv-x="411" d="M98 566Q98 624 125 665T202 729T315 751Q346 751 377 746T435 731L413 581Q397 586 383 590T355 594Q338 594 326 588T306 571T298 542V0H98V566ZM24 516H411V387H24V516Z" />
<glyph unicode="g" horiz-adv-x="651" d="M593 47Q593 -30 556 -86T451 -172T294 -203Q218 -203 153 -182T43 -132L110 4Q146 -19 190 -32T277 -46Q314 -46 340 -36T379 -5T393 41V544H593V47ZM243 551Q309 551 355 520T426 430T451 293Q451 213 427 154T358 63T247
31Q182 31 130 63T49 155T19 294Q19 372 48 429T127 519T243 551ZM300 402Q273 402 252 388T220 348T208 288Q208 255 219 230T252 190T300 176Q328 176 348 190T381 229T393 288Q393 323 381 348T349 388T300 402Z" />
<glyph unicode="h" horiz-adv-x="683" d="M435 287Q435 328 414 351T357 375Q316 374 292 345T268 269H222Q222 358 248 422T324 519T441 552Q500 552 544 527T612 455T637 345V0H435V287ZM66 742H268V0H66V742Z" />
<glyph unicode="i" horiz-adv-x="324" d="M61 544H263V0H61V544ZM163 803Q209 803 238 774T267 699Q267 653 238 624T163 595Q118 595 89 624T59 699Q59 744 88 773T163 803Z" />
<glyph unicode="j" horiz-adv-x="326" d="M-25 -39Q-15 -41 -5 -43T15 -45Q65 -47 65 12V544H267V-19Q267 -104 212 -153T61 -202Q-9 -202 -64 -180L-25 -39ZM165 803Q211 803 240 774T269 699Q269 653 240 624T165 595Q120 595 91 624T61 699Q61 744 90 773T165 803Z" />
<glyph unicode="k" horiz-adv-x="648" d="M66 742H268V0H66V742ZM418 544H646L258 135V370L418 544ZM434 356L647 0H408L285 234L434 356Z" />
<glyph unicode="l" horiz-adv-x="335" d="M66 742H268V0H66V742Z" />
<glyph unicode="m" horiz-adv-x="1034" d="M424 287Q424 328 404 351T349 375Q310 374 287 345T263 269H217Q217 358 243 422T317 519T432 552Q490 552 533 527T601 455T626 345V0H424V287ZM786 287Q786 328 766 351T711 375Q672 374 649 345T626 269H579Q579
358 605 422T679 519T795 552Q853 552 896 527T964 455T988 345V0H786V287ZM61 544H263V0H61V544Z" />
<glyph unicode="n" horiz-adv-x="678" d="M430 287Q430 328 409 351T352 375Q311 374 287 345T263 269H217Q217 358 243 422T319 519T436 552Q494 552 538 527T607 455T632 345V0H430V287ZM61 544H263V0H61V544Z" />
<glyph unicode="o" horiz-adv-x="643" d="M322 551Q413 551 481 517T586 420T624 272Q624 188 587 125T481 28T322 -7Q230 -7 162 27T57 125T19 272Q19 357 56 419T162 516T322 551ZM322 391Q292 391 270 376T235 334T223 270Q223 233 235 206T269 164T322 149Q352
149 374 164T408 206T420 270Q420 306 408 333T374 376T322 391Z" />
<glyph unicode="p" horiz-adv-x="688" d="M417 551Q493 551 549 516T637 418T669 269Q669 186 639 124T553 28T422 -7Q356 -7 308 27T233 123T206 270Q206 356 231 419T304 516T417 551ZM366 395Q337 395 315 380T281 338T268 274Q268 238 280 211T315 168T366
153Q396 153 418 168T453 210T465 274Q465 310 453 337T419 380T366 395ZM66 544H268V-194H66V544Z" />
<glyph unicode="q" horiz-adv-x="688" d="M266 551Q333 551 381 517T456 421T483 274Q483 188 457 125T384 28T271 -7Q195 -7 139 27T51 126T19 275Q19 359 49 420T136 516T266 551ZM322 391Q292 391 270 376T235 334T223 270Q223 233 235 206T269 164T322 148Q352
148 374 163T408 206T420 270Q420 306 408 333T374 376T322 391ZM420 544H622V-194H420V544Z" />
<glyph unicode="r" horiz-adv-x="444" d="M434 370Q382 377 344 365T284 327T263 260L217 269Q217 356 243 420T319 518T434 552V370ZM61 544H263V0H61V544Z" />
<glyph unicode="s" horiz-adv-x="535" d="M444 360Q389 388 344 402T266 417Q248 417 237 411T225 391Q225 376 245 367T298 348T367 328T435 298T488 248T509 171Q509 115 479 75T395 13T270 -9Q198 -9 133 10T14 68L76 195Q127 162 177 145T273 128Q287 128
297 131T312 139T318 153Q318 168 298 178T247 196T179 215T112 246T60 295T40 371Q40 429 69 469T151 531T272 553Q334 553 395 537T511 487L444 360Z" />
<glyph unicode="t" horiz-adv-x="449" d="M289 201Q289 175 301 162T335 149Q347 149 363 153T397 165L433 26Q405 10 365 1T282 -9Q224 -9 181 12T113 73T88 170V667H289V201ZM13 516H423V387H13V516Z" />
<glyph unicode="u" horiz-adv-x="668" d="M248 256Q248 216 268 193T321 169Q360 170 382 199T405 275H451Q451 185 425 122T352 25T238 -9Q181 -9 138 17T70 89T46 199V544H248V256ZM405 544H607V0H405V544Z" />
<glyph unicode="v" horiz-adv-x="594" d="M-8 544H200L300 183L401 544H603L400 0H194L-8 544Z" />
<glyph unicode="w" horiz-adv-x="959" d="M-8 544H197L295 197L389 544H579L676 197L772 544H968L770 0H571L481 312L389 0H190L-8 544Z" />
<glyph unicode="x" horiz-adv-x="633" d="M10 544H242L317 403L401 544H621L451 279L633 0H401L317 154L221 0H-1L181 278L10 544Z" />
<glyph unicode="y" horiz-adv-x="605" d="M385 -46Q353 -126 297 -164T159 -203Q109 -203 67 -189T-16 -143L68 -8Q104 -39 141 -39Q162 -39 176 -31T200 -4L210 15L-15 544H192L311 211L412 544H613L385 -46Z" />
<glyph unicode="z" horiz-adv-x="562" d="M39 544L527 543V424L283 151H537V0H29V119L273 392H39V544Z" />
<glyph unicode="{" horiz-adv-x="370" d="M59 385Q77 385 84 394T92 424V596Q92 652 109 684T168 730T277 744H356V595Q305 595 289 582T272 534V437Q272 392 259 365T215 324T134 302L59 232H17V385H59ZM134 316Q185 308 215 294T258 253T272 181V84Q272 50 288
37T356 23V-126H277Q209 -126 168 -112T110 -66T92 21V194Q92 216 85 224T59 232H17V385H59L134 316Z" />
<glyph unicode="|" horiz-adv-x="314" d="M82 799H232V-106H82V799Z" />
<glyph unicode="}" horiz-adv-x="370" d="M312 385H354V232H312L237 302Q186 310 156 324T112 365T98 437V534Q98 568 82 581T14 595V744H93Q162 744 202 730T260 684T278 596V424Q278 403 286 394T312 385ZM237 316L312 385H354V232H312Q294 232 286 224T278
194V21Q278 -33 261 -65T203 -112T93 -126H14V23Q65 23 81 36T98 84V181Q98 227 111 253T155 293T237 316Z" />
<glyph unicode="~" horiz-adv-x="515" d="M465 418Q465 323 435 277T344 231Q318 231 299 238T264 254T237 271T214 278Q186 278 186 235H51Q51 330 81 376T172 422Q198 422 217 415T252 399T279 382T302 375Q331 375 331 418H465Z" />
<glyph unicode="&#xa0;" horiz-adv-x="270" />
<glyph unicode="&#xa1;" horiz-adv-x="276" d="M237 -156H45V25L81 293H202L237 25V-156ZM145 362Q103 362 77 388T51 456Q51 498 77 524T145 551Q187 551 213 525T239 456Q239 415 213 389T145 362Z" />
<glyph unicode="&#xa2;" horiz-adv-x="600" d="M236 707H385V465H236V707ZM236 88H385V-160H236V88ZM400 333Q386 359 364 373T313 387Q286 387 266 373T234 332T223 271Q223 235 234 209T265 168T313 153Q342 153 364 167T399 213L556 134Q525 67 459 30T302
-7Q217 -7 154 27T55 124T19 270Q19 354 54 417T154 516T304 551Q389 551 454 514T555 409L400 333Z" />
<glyph unicode="&#xa3;" horiz-adv-x="570" d="M24 375H468V307H24V375ZM347 710Q410 710 467 689T567 626L490 473Q425 536 370 536Q338 536 322 518T305 464V65L214 156H552V0H24V156H187L96 65V468Q96 584 162 647T347 710Z" />
<glyph unicode="&#xa4;" horiz-adv-x="697" d="M348 578Q401 578 448 558T530 503T585 422T605 322Q605 270 585 223T530 142T448 87T348 66Q295 66 248 86T166 141T111 223T91 322Q91 376 111 422T166 503T248 558T348 578ZM348 422Q320 422 298 409T262 373T249
322Q249 295 262 273T298 237T348 224Q376 224 398 237T435 272T449 322Q449 350 435 372T398 408T348 422ZM132 647L240 538L128 426L19 534L132 647ZM128 209L240 97L132 -12L19 101L128 209ZM565 647L678 534L569 426L456 538L565 647ZM569 209L678 101L565
-12L456 97L569 209Z" />
<glyph unicode="&#xa5;" horiz-adv-x="717" d="M0 701H208L361 415L509 701H717L373 47H347L0 701ZM257 312H465V0H257V312ZM69 335H650V267H69V335ZM69 219H650V151H69V219Z" />
<glyph unicode="&#xa6;" horiz-adv-x="314" d="M82 799H232V459H82V799ZM82 235H232V-106H82V235Z" />
<glyph unicode="&#xa7;" horiz-adv-x="568" d="M474 504Q416 533 371 547T296 561Q273 561 261 554T249 535Q249 519 270 508T326 487T397 464T469 432T524 382T546 308Q546 278 535 252T503 207T452 172Q479 153 492 134T506 78Q506 29 478 -8T397 -67T270 -89Q203
-89 137 -70T14 -11L69 114Q123 80 174 63T266 46Q283 46 295 49T312 59T318 72Q318 87 297 98T242 118T172 141T102 173T48 222T26 296Q26 342 52 376T124 432Q89 453 78 475T66 526Q66 575 93 613T172 672T294 694Q353 694 413 678T534 629L474 504ZM267 339Q237
339 223 331T208 309Q208 297 220 288T252 273T297 268Q318 268 332 271T352 282T359 297Q359 316 332 327T267 339Z" />
<glyph unicode="&#xa8;" horiz-adv-x="448" d="M129 774Q165 774 188 751T211 691Q211 655 188 632T129 608Q93 608 70 632T47 691Q47 727 70 750T129 774ZM326 774Q362 774 385 751T408 691Q408 655 385 632T326 608Q290 608 267 632T244 691Q244 727 267 750T326 774Z" />
<glyph unicode="&#xa9;" horiz-adv-x="715" d="M356 9Q285 9 224 35T116 109T45 217T19 348Q19 417 45 479T117 588T224 662T358 689Q429 689 490 663T598 590T670 482T696 350Q696 281 670 219T598 110T490 36T356 9ZM361 184Q313 184 275 205T214 264T192 349Q192
396 214 432T276 490T365 512Q401 512 437 497T497 455L442 390Q427 410 407 421T366 433Q344 433 327 423T299 393T289 351Q289 327 299 308T326 279T366 268Q385 268 405 278T442 304L497 246Q471 218 435 201T361 184ZM356 100Q409 100 454 119T533 174T586
254T605 350Q605 401 587 446T534 525T455 578T358 598Q305 598 260 579T181 524T129 444T110 348Q110 297 128 252T181 173T259 119T356 100Z" />
<glyph unicode="&#xaa;" horiz-adv-x="397" d="M178 593Q162 593 154 586T145 565Q145 552 153 544T178 536Q194 536 207 542T231 563L247 524Q234 490 205 471T131 452Q77 452 47 480T16 555Q16 603 50 628T149 654H243V593H178ZM230 653Q230 672 217 682T174
692Q154 692 126 687T69 671L38 759Q82 773 125 781T207 790Q281 790 323 759T365 670V458H231L230 653Z" />
<glyph unicode="&#xab;" horiz-adv-x="526" d="M114 459H276L170 270L276 80H114L-9 270L114 459ZM356 459H518L412 270L518 80H356L233 270L356 459Z" />
<glyph unicode="&#xac;" horiz-adv-x="586" d="M31 439H529V313H31V439ZM385 439H529V133H385V439Z" />
<glyph unicode="&#xad;" horiz-adv-x="377" d="M52 371H325V245H52V371Z" />
<glyph unicode="&#xae;" horiz-adv-x="715" d="M356 9Q285 9 224 35T116 109T45 217T19 348Q19 417 45 479T117 588T224 662T358 689Q429 689 490 663T598 590T670 482T696 350Q696 281 670 219T598 110T490 36T356 9ZM407 206L349 323H436L510 206H407ZM356 100Q409
100 454 119T533 174T586 254T605 350Q605 401 587 446T534 525T455 578T358 598Q305 598 260 579T181 524T129 444T110 348Q110 297 128 252T181 173T259 119T356 100ZM228 206V516H368Q431 516 465 488T499 407Q499 352 465 321T368 290H319V206H228ZM319 359H368Q390
359 401 371T412 403Q412 424 401 435T368 447H319V359Z" />
<glyph unicode="&#xaf;" horiz-adv-x="342" d="M18 752H333V637H18V752Z" />
<glyph unicode="&#xb0;" horiz-adv-x="389" d="M205 821Q238 821 265 805T308 761T325 701Q325 669 309 642T265 598T205 582Q172 582 145 598T102 641T85 701Q85 735 101 761T145 804T205 821ZM205 745Q186 745 174 732T161 701Q161 683 174 670T205 657Q223
657 236 670T249 701Q249 719 236 732T205 745Z" />
<glyph unicode="&#xb1;" horiz-adv-x="498" d="M35 426H463V352H35V426ZM212 598H287V180H212V598ZM35 98H463V22H35V98Z" />
<glyph unicode="&#xb2;" horiz-adv-x="388" d="M175 597Q188 611 198 626T208 652Q208 663 200 669T176 675Q152 675 121 661T58 622L5 719Q52 750 100 767T199 785Q266 785 311 754T356 672Q356 636 332 601T271 530L202 464H363V360H22V445L175 597Z" />
<glyph unicode="&#xb3;" horiz-adv-x="376" d="M260 610Q302 601 329 572T357 494Q357 434 310 395T182 355Q133 355 86 370T7 411L63 514Q88 485 115 471T171 456Q195 456 207 465T219 494Q219 513 207 522T171 532H93V603L178 681H29V779H337V703L240 615L260 610Z" />
<glyph unicode="&#xb4;" horiz-adv-x="350" d="M159 775L317 717L164 595L32 605L159 775Z" />
<glyph unicode="&#xb5;" horiz-adv-x="688" d="M66 544H268V-194H66V544ZM268 256Q268 216 288 193T342 169Q381 170 403 199T425 275H471Q471 185 446 122T373 25T258 -9Q201 -9 158 17T91 89T66 199V544H268V256ZM425 544H627V0H425V544Z" />
<glyph unicode="&#xb6;" horiz-adv-x="668" d="M226 307Q220 307 214 307T202 307Q139 307 98 328T34 382T2 452T-8 520Q-8 576 17 627T97 710T244 742H609V-106H460V630H375V-106H226V307Z" />
<glyph unicode="&#xb7;" horiz-adv-x="239" d="M119 397Q165 397 194 368T223 293Q223 247 194 218T119 189Q74 189 45 218T15 293Q15 338 44 367T119 397Z" />
<glyph unicode="&#xb8;" horiz-adv-x="332" d="M135 10L244 0L223 -57Q268 -68 287 -90T306 -139Q306 -175 287 -197T238 -229T173 -239Q144 -239 114 -234T59 -219L87 -134Q99 -139 111 -140T135 -142Q153 -142 164 -137T176 -122Q176 -110 159 -105T120 -99Q116
-99 110 -99T100 -99L135 10Z" />
<glyph unicode="&#xb9;" horiz-adv-x="270" d="M0 779H219V360H78V672H0V779Z" />
<glyph unicode="&#xba;" horiz-adv-x="416" d="M208 789Q267 789 309 769T376 710T401 621Q401 571 377 533T310 475T208 454Q120 454 68 500T16 621Q16 672 39 710T106 768T208 789ZM207 685Q184 685 169 667T154 620Q154 591 169 573T207 555Q232 555 247 573T262
620Q262 649 247 667T207 685Z" />
<glyph unicode="&#xbb;" horiz-adv-x="528" d="M169 80H7L113 269L7 459H169L292 269L169 80ZM412 80H249L356 269L249 459H412L534 269L412 80Z" />
<glyph unicode="&#xbc;" horiz-adv-x="876" d="M0 700H219V281H78V593H0V700ZM584 701H720L228 0H91L584 701ZM612 419H747L626 179H690V260H821V179H877V82H821V0H690V82H482V171L612 419Z" />
<glyph unicode="&#xbd;" horiz-adv-x="920" d="M0 700H219V281H78V593H0V700ZM584 701H720L228 0H91L584 701ZM707 237Q720 251 730 266T740 292Q740 303 732 309T708 315Q684 315 653 301T590 262L537 359Q584 390 632 407T731 425Q798 425 843 394T888 312Q888
276 864 241T803 170L734 104H895V0H554V85L707 237Z" />
<glyph unicode="&#xbe;" horiz-adv-x="952" d="M260 531Q302 522 329 493T357 415Q357 355 310 316T182 276Q133 276 86 291T7 332L63 435Q88 406 115 392T171 377Q195 377 207 386T219 415Q219 434 207 443T171 453H93V524L178 602H29V700H337V624L240 536L260
531ZM660 701H796L304 0H167L660 701ZM689 419H824L703 179H767V260H898V179H954V82H898V0H767V82H559V171L689 419Z" />
<glyph unicode="&#xbf;" horiz-adv-x="486" d="M465 79Q465 -36 402 -100T226 -164Q157 -164 107 -143T30 -82T3 15Q3 51 15 79T46 129T88 170T129 208T161 249T173 298H324Q324 261 315 233T290 185T258 149T226 117T201 86T191 47Q191 20 204 8T245 -5Q278 -5
294 16T310 79H465ZM252 363Q210 363 184 389T158 457Q158 499 184 525T252 552Q293 552 319 526T346 457Q346 415 320 389T252 363Z" />
<glyph unicode="&#xc0;" horiz-adv-x="786" d="M291 701H505L794 0H572L392 493L206 0H-8L291 701ZM183 264H588V112H183V264ZM378 928L487 758L354 748L219 870L378 928Z" />
<glyph unicode="&#xc1;" horiz-adv-x="786" d="M291 701H505L794 0H572L392 493L206 0H-8L291 701ZM183 264H588V112H183V264ZM420 928L578 870L425 748L293 758L420 928Z" />
<glyph unicode="&#xc2;" horiz-adv-x="786" d="M291 701H505L794 0H572L392 493L206 0H-8L291 701ZM183 264H588V112H183V264ZM307 912H480L590 755H456L343 880H444L331 755H197L307 912Z" />
<glyph unicode="&#xc3;" horiz-adv-x="786" d="M291 701H505L794 0H572L392 493L206 0H-8L291 701ZM183 264H588V112H183V264ZM587 919Q587 863 576 826T543 771T484 752Q461 752 442 758T406 773T376 788T351 795Q337 795 331 785T323 755H214Q214 810 224 847T258
903T317 922Q340 922 359 916T396 901T426 886T449 880Q465 880 471 890T479 919H587Z" />
<glyph unicode="&#xc4;" horiz-adv-x="786" d="M291 701H505L794 0H572L392 493L206 0H-8L291 701ZM183 264H588V112H183V264ZM295 919Q332 919 355 896T378 836Q378 801 355 777T295 753Q259 753 236 777T213 836Q213 872 236 895T295 919ZM492 919Q529 919 552
896T575 836Q575 801 552 777T492 753Q456 753 433 777T410 836Q410 872 433 895T492 919Z" />
<glyph unicode="&#xc5;" horiz-adv-x="786" d="M291 701H505L794 0H572L392 493L206 0H-8L291 701ZM183 264H588V112H183V264ZM394 978Q428 978 455 962T499 919T515 857Q515 824 499 796T456 752T394 736Q361 736 333 752T289 796T273 857Q273 891 289 918T333
962T394 978ZM394 898Q377 898 365 887T352 857Q352 840 364 828T394 816Q412 816 424 828T436 857Q436 875 424 886T394 898Z" />
<glyph unicode="&#xc6;" horiz-adv-x="1127" d="M503 701H1076V541H711V431H1042V271H711V160H1086V0H503V701ZM386 701H771L778 542H485L208 0H-8L386 701ZM217 283H612L607 133H213L217 283Z" />
<glyph unicode="&#xc7;" horiz-adv-x="690" d="M566 446Q533 490 488 515T399 541Q364 541 334 527T280 488T245 429T232 355Q232 315 244 281T280 221T333 182T399 168Q440 168 485 190T566 250L686 122Q648 81 599 50T496 3T389 -14Q308 -14 241 13T124 90T47
206T19 353Q19 431 47 496T126 611T246 687T396 714Q450 714 503 699T603 655T686 589L566 446ZM323 10L432 0L411 -57Q456 -68 475 -90T494 -139Q494 -175 475 -197T426 -229T361 -239Q332 -239 302 -234T247 -219L275 -134Q287 -139 299 -140T323 -142Q341 -142
352 -137T364 -122Q364 -110 347 -105T308 -99Q304 -99 298 -99T288 -99L323 10Z" />
<glyph unicode="&#xc8;" horiz-adv-x="683" d="M59 701H632V541H267V431H598V271H267V160H642V0H59V701ZM333 928L442 758L309 748L174 870L333 928Z" />
<glyph unicode="&#xc9;" horiz-adv-x="683" d="M59 701H632V541H267V431H598V271H267V160H642V0H59V701ZM375 928L533 870L380 748L248 758L375 928Z" />
<glyph unicode="&#xca;" horiz-adv-x="683" d="M59 701H632V541H267V431H598V271H267V160H642V0H59V701ZM262 912H435L545 755H411L298 880H399L286 755H152L262 912Z" />
<glyph unicode="&#xcb;" horiz-adv-x="683" d="M59 701H632V541H267V431H598V271H267V160H642V0H59V701ZM250 919Q287 919 310 896T333 836Q333 801 310 777T250 753Q214 753 191 777T168 836Q168 872 191 895T250 919ZM447 919Q484 919 507 896T530 836Q530 801
507 777T447 753Q411 753 388 777T365 836Q365 872 388 895T447 919Z" />
<glyph unicode="&#xcc;" horiz-adv-x="326" d="M59 701H267V0H59V701ZM147 928L256 758L123 748L-12 870L147 928Z" />
<glyph unicode="&#xcd;" horiz-adv-x="326" d="M59 701H267V0H59V701ZM189 928L347 870L194 748L62 758L189 928Z" />
<glyph unicode="&#xce;" horiz-adv-x="326" d="M59 701H267V0H59V701ZM76 912H249L359 755H225L112 880H213L100 755H-34L76 912Z" />
<glyph unicode="&#xcf;" horiz-adv-x="326" d="M59 701H267V0H59V701ZM320 919Q357 919 380 896T403 836Q403 801 380 777T320 753Q284 753 261 777T238 836Q238 872 261 895T320 919ZM517 919Q554 919 577 896T600 836Q600 801 577 777T517 753Q481 753 458 777T435
836Q435 872 458 895T517 919Z" />
<glyph unicode="&#xd0;" horiz-adv-x="762" d="M-5 396H414V305H-5V396ZM366 701Q452 701 521 676T639 605T716 495T743 351Q743 272 716 208T638 97T517 25T359 0H59V701H366ZM372 163Q408 163 436 176T487 214T520 273T531 349Q531 391 519 425T485 485T431
524T362 537H267V163H372Z" />
<glyph unicode="&#xd1;" horiz-adv-x="783" d="M59 701H236L589 237L534 218V701H724V0H547L195 462L250 481V0H59V701ZM587 919Q587 863 576 826T543 771T484 752Q461 752 442 758T406 773T376 788T351 795Q337 795 331 785T323 755H214Q214 810 224 847T258
903T317 922Q340 922 359 916T396 901T426 886T449 880Q465 880 471 890T479 919H587Z" />
<glyph unicode="&#xd2;" horiz-adv-x="802" d="M401 714Q484 714 553 687T674 611T754 496T783 352Q783 274 755 207T675 90T554 14T401 -14Q318 -14 249 13T128 90T48 206T19 352Q19 431 47 497T127 611T248 687T401 714ZM404 541Q369 541 338 527T283 487T246
427T232 351Q232 310 246 275T283 214T338 174T404 159Q438 159 468 173T521 214T557 275T570 351Q570 392 557 426T521 487T468 527T404 541ZM385 928L494 758L361 748L226 870L385 928Z" />
<glyph unicode="&#xd3;" horiz-adv-x="802" d="M401 714Q484 714 553 687T674 611T754 496T783 352Q783 274 755 207T675 90T554 14T401 -14Q318 -14 249 13T128 90T48 206T19 352Q19 431 47 497T127 611T248 687T401 714ZM404 541Q369 541 338 527T283 487T246
427T232 351Q232 310 246 275T283 214T338 174T404 159Q438 159 468 173T521 214T557 275T570 351Q570 392 557 426T521 487T468 527T404 541ZM428 928L586 870L433 748L301 758L428 928Z" />
<glyph unicode="&#xd4;" horiz-adv-x="802" d="M401 714Q484 714 553 687T674 611T754 496T783 352Q783 274 755 207T675 90T554 14T401 -14Q318 -14 249 13T128 90T48 206T19 352Q19 431 47 497T127 611T248 687T401 714ZM404 541Q369 541 338 527T283 487T246
427T232 351Q232 310 246 275T283 214T338 174T404 159Q438 159 468 173T521 214T557 275T570 351Q570 392 557 426T521 487T468 527T404 541ZM315 912H488L598 755H464L351 880H452L339 755H205L315 912Z" />
<glyph unicode="&#xd5;" horiz-adv-x="802" d="M401 714Q484 714 553 687T674 611T754 496T783 352Q783 274 755 207T675 90T554 14T401 -14Q318 -14 249 13T128 90T48 206T19 352Q19 431 47 497T127 611T248 687T401 714ZM404 541Q369 541 338 527T283 487T246
427T232 351Q232 310 246 275T283 214T338 174T404 159Q438 159 468 173T521 214T557 275T570 351Q570 392 557 426T521 487T468 527T404 541ZM594 919Q594 863 583 826T550 771T491 752Q468 752 449 758T413 773T383 788T358 795Q344 795 338 785T330 755H221Q221
810 231 847T265 903T324 922Q347 922 366 916T403 901T433 886T456 880Q472 880 478 890T486 919H594Z" />
<glyph unicode="&#xd6;" horiz-adv-x="802" d="M401 714Q484 714 553 687T674 611T754 496T783 352Q783 274 755 207T675 90T554 14T401 -14Q318 -14 249 13T128 90T48 206T19 352Q19 431 47 497T127 611T248 687T401 714ZM404 541Q369 541 338 527T283 487T246
427T232 351Q232 310 246 275T283 214T338 174T404 159Q438 159 468 173T521 214T557 275T570 351Q570 392 557 426T521 487T468 527T404 541ZM302 919Q339 919 362 896T385 836Q385 801 362 777T302 753Q266 753 243 777T220 836Q220 872 243 895T302 919ZM499
919Q536 919 559 896T582 836Q582 801 559 777T499 753Q463 753 440 777T417 836Q417 872 440 895T499 919Z" />
<glyph unicode="&#xd7;" horiz-adv-x="515" d="M373 533L463 443L142 123L53 213L373 533ZM142 533L463 213L373 123L53 443L142 533Z" />
<glyph unicode="&#xd8;" horiz-adv-x="802" d="M584 755H705L218 -55H97L584 755ZM401 704Q484 704 553 678T674 603T754 490T783 348Q783 270 755 205T675 91T554 15T401 -12Q318 -12 249 15T128 90T48 204T19 348Q19 425 47 490T127 603T248 677T401 704ZM404
530Q369 530 338 517T283 478T246 420T232 347Q232 307 246 274T283 215T338 175T404 161Q438 161 468 175T521 214T557 273T570 347Q570 386 557 419T521 478T468 516T404 530Z" />
<glyph unicode="&#xd9;" horiz-adv-x="745" d="M256 290Q256 230 291 195T375 159Q425 159 457 194T489 290V701H697V290Q697 198 658 130T546 24T375 -14Q276 -14 203 23T89 129T48 290V701H256V290ZM357 928L466 758L333 748L198 870L357 928Z" />
<glyph unicode="&#xda;" horiz-adv-x="745" d="M256 290Q256 230 291 195T375 159Q425 159 457 194T489 290V701H697V290Q697 198 658 130T546 24T375 -14Q276 -14 203 23T89 129T48 290V701H256V290ZM399 928L557 870L404 748L272 758L399 928Z" />
<glyph unicode="&#xdb;" horiz-adv-x="745" d="M256 290Q256 230 291 195T375 159Q425 159 457 194T489 290V701H697V290Q697 198 658 130T546 24T375 -14Q276 -14 203 23T89 129T48 290V701H256V290ZM286 912H459L569 755H435L322 880H423L310 755H176L286 912Z" />
<glyph unicode="&#xdc;" horiz-adv-x="745" d="M256 290Q256 230 291 195T375 159Q425 159 457 194T489 290V701H697V290Q697 198 658 130T546 24T375 -14Q276 -14 203 23T89 129T48 290V701H256V290ZM274 919Q311 919 334 896T357 836Q357 801 334 777T274 753Q238
753 215 777T192 836Q192 872 215 895T274 919ZM471 919Q508 919 531 896T554 836Q554 801 531 777T471 753Q435 753 412 777T389 836Q389 872 412 895T471 919Z" />
<glyph unicode="&#xdd;" horiz-adv-x="702" d="M-8 701H200L353 415L502 701H710L365 47H339L-8 701ZM249 312H457V0H249V312ZM378 928L536 870L383 748L251 758L378 928Z" />
<glyph unicode="&#xde;" horiz-adv-x="694" d="M377 612Q468 612 534 582T637 498T673 367Q673 287 637 229T535 139T377 107H256V265H368Q411 265 435 290T459 361Q459 404 435 428T368 453H256L227 612H377ZM59 701H267V0H59V701Z" />
<glyph unicode="&#xdf;" horiz-adv-x="667" d="M48 494Q48 572 82 630T178 719T327 751Q409 751 470 726T564 656T598 548Q598 500 574 455T512 384Q570 366 605 321T641 216Q641 151 606 103T507 27T356 0H308V142H339Q392 142 418 161T445 219Q445 257 417 275T333
293H312V435Q358 435 380 456T402 518Q402 560 384 580T329 601Q303 601 286 591T259 560T250 509V0H48V494Z" />
<glyph unicode="&#xe0;" horiz-adv-x="607" d="M271 228Q241 228 226 216T210 177Q210 152 226 138T271 123Q292 123 310 130T342 149T363 179L388 107Q368 52 321 22T204 -9Q146 -9 105 12T42 72T20 162Q20 241 74 283T230 327H381V228H271ZM363 329Q363 363
339 382T269 401Q236 401 193 391T105 362L55 496Q100 514 144 527T231 546T317 552Q432 552 496 500T561 353V0H363V329ZM288 775L397 605L264 595L129 717L288 775Z" />
<glyph unicode="&#xe1;" horiz-adv-x="607" d="M271 228Q241 228 226 216T210 177Q210 152 226 138T271 123Q292 123 310 130T342 149T363 179L388 107Q368 52 321 22T204 -9Q146 -9 105 12T42 72T20 162Q20 241 74 283T230 327H381V228H271ZM363 329Q363 363
339 382T269 401Q236 401 193 391T105 362L55 496Q100 514 144 527T231 546T317 552Q432 552 496 500T561 353V0H363V329ZM331 775L489 717L336 595L204 605L331 775Z" />
<glyph unicode="&#xe2;" horiz-adv-x="607" d="M271 228Q241 228 226 216T210 177Q210 152 226 138T271 123Q292 123 310 130T342 149T363 179L388 107Q368 52 321 22T204 -9Q146 -9 105 12T42 72T20 162Q20 241 74 283T230 327H381V228H271ZM363 329Q363 363
339 382T269 401Q236 401 193 391T105 362L55 496Q100 514 144 527T231 546T317 552Q432 552 496 500T561 353V0H363V329ZM218 766H391L501 609H367L254 734H355L242 609H108L218 766Z" />
<glyph unicode="&#xe3;" horiz-adv-x="607" d="M271 228Q241 228 226 216T210 177Q210 152 226 138T271 123Q292 123 310 130T342 149T363 179L388 107Q368 52 321 22T204 -9Q146 -9 105 12T42 72T20 162Q20 241 74 283T230 327H381V228H271ZM363 329Q363 363
339 382T269 401Q236 401 193 391T105 362L55 496Q100 514 144 527T231 546T317 552Q432 552 496 500T561 353V0H363V329ZM497 763Q497 707 486 670T453 615T394 596Q371 596 352 602T316 617T286 632T261 639Q247 639 241 629T233 599H124Q124 654 134 691T168
747T227 766Q250 766 269 760T306 745T336 730T359 724Q375 724 381 734T389 763H497Z" />
<glyph unicode="&#xe4;" horiz-adv-x="607" d="M271 228Q241 228 226 216T210 177Q210 152 226 138T271 123Q292 123 310 130T342 149T363 179L388 107Q368 52 321 22T204 -9Q146 -9 105 12T42 72T20 162Q20 241 74 283T230 327H381V228H271ZM363 329Q363 363
339 382T269 401Q236 401 193 391T105 362L55 496Q100 514 144 527T231 546T317 552Q432 552 496 500T561 353V0H363V329ZM206 774Q242 774 265 751T288 691Q288 655 265 632T206 608Q170 608 147 632T124 691Q124 727 147 750T206 774ZM403 774Q439 774 462 751T485
691Q485 655 462 632T403 608Q367 608 344 632T321 691Q321 727 344 750T403 774Z" />
<glyph unicode="&#xe5;" horiz-adv-x="607" d="M271 228Q241 228 226 216T210 177Q210 152 226 138T271 123Q292 123 310 130T342 149T363 179L388 107Q368 52 321 22T204 -9Q146 -9 105 12T42 72T20 162Q20 241 74 283T230 327H381V228H271ZM363 329Q363 363
339 382T269 401Q236 401 193 391T105 362L55 496Q100 514 144 527T231 546T317 552Q432 552 496 500T561 353V0H363V329ZM304 821Q338 821 365 805T409 762T425 700Q425 667 409 639T366 595T304 579Q271 579 243 595T199 639T183 700Q183 734 199 761T243 805T304
821ZM304 741Q287 741 275 730T262 700Q262 683 274 671T304 659Q322 659 334 671T346 700Q346 718 334 729T304 741Z" />
<glyph unicode="&#xe6;" horiz-adv-x="962" d="M573 219Q577 201 586 187T610 163T641 148T679 142Q745 142 799 194L904 91Q862 44 800 19T661 -7Q610 -7 568 5T494 42T440 99Q409 47 354 19T221 -10Q159 -10 114 11T45 71T20 161Q20 239 74 281T231 324H365V338Q362
368 338 384T271 401Q238 401 193 391T101 362L55 497Q124 524 191 538T318 552Q375 552 419 539T495 500Q527 525 567 538T656 551Q749 551 815 511T914 398T942 227H572L573 219ZM273 229Q243 229 227 216T210 177Q210 151 226 136T272 120Q300 120 325 134T366
174L365 229H273ZM740 322Q741 349 731 370T701 403T657 415Q634 415 616 404T585 371T568 322H740Z" />
<glyph unicode="&#xe7;" horiz-adv-x="562" d="M400 333Q386 359 364 373T313 387Q286 387 266 373T234 332T223 271Q223 235 234 209T265 168T313 153Q342 153 364 167T399 213L556 134Q525 67 459 30T302 -7Q217 -7 154 27T55 124T19 270Q19 354 54 417T154
516T304 551Q389 551 454 514T555 409L400 333ZM242 10L351 0L330 -57Q375 -68 394 -90T413 -139Q413 -175 394 -197T345 -229T280 -239Q251 -239 221 -234T166 -219L194 -134Q206 -139 218 -140T242 -142Q260 -142 271 -137T283 -122Q283 -110 266 -105T227 -99Q223
-99 217 -99T207 -99L242 10Z" />
<glyph unicode="&#xe8;" horiz-adv-x="609" d="M390 322Q391 350 381 370T352 402T308 414Q278 414 258 397T226 349T215 281Q215 237 229 206T269 159T329 142Q395 142 449 194L554 91Q512 44 451 19T312 -7Q221 -7 156 27T55 124T19 270Q19 355 55 418T155 516T306
551Q402 551 467 511T563 397T589 223H188V322H390ZM286 775L395 605L262 595L127 717L286 775Z" />
<glyph unicode="&#xe9;" horiz-adv-x="609" d="M390 322Q391 350 381 370T352 402T308 414Q278 414 258 397T226 349T215 281Q215 237 229 206T269 159T329 142Q395 142 449 194L554 91Q512 44 451 19T312 -7Q221 -7 156 27T55 124T19 270Q19 355 55 418T155 516T306
551Q402 551 467 511T563 397T589 223H188V322H390ZM329 775L487 717L334 595L202 605L329 775Z" />
<glyph unicode="&#xea;" horiz-adv-x="609" d="M390 322Q391 350 381 370T352 402T308 414Q278 414 258 397T226 349T215 281Q215 237 229 206T269 159T329 142Q395 142 449 194L554 91Q512 44 451 19T312 -7Q221 -7 156 27T55 124T19 270Q19 355 55 418T155 516T306
551Q402 551 467 511T563 397T589 223H188V322H390ZM216 766H389L499 609H365L252 734H353L240 609H106L216 766Z" />
<glyph unicode="&#xeb;" horiz-adv-x="609" d="M390 322Q391 350 381 370T352 402T308 414Q278 414 258 397T226 349T215 281Q215 237 229 206T269 159T329 142Q395 142 449 194L554 91Q512 44 451 19T312 -7Q221 -7 156 27T55 124T19 270Q19 355 55 418T155 516T306
551Q402 551 467 511T563 397T589 223H188V322H390ZM204 774Q240 774 263 751T286 691Q286 655 263 632T204 608Q168 608 145 632T122 691Q122 727 145 750T204 774ZM401 774Q437 774 460 751T483 691Q483 655 460 632T401 608Q365 608 342 632T319 691Q319 727
342 750T401 774Z" />
<glyph unicode="&#xec;" horiz-adv-x="324" d="M61 544H263V0H61V544ZM403 775L512 605L379 595L244 717L403 775Z" />
<glyph unicode="&#xed;" horiz-adv-x="324" d="M61 544H263V0H61V544ZM189 775L347 717L194 595L62 605L189 775Z" />
<glyph unicode="&#xee;" horiz-adv-x="324" d="M61 544H263V0H61V544ZM332 766H505L615 609H481L368 734H469L356 609H222L332 766Z" />
<glyph unicode="&#xef;" horiz-adv-x="324" d="M61 544H263V0H61V544ZM322 774Q359 774 381 751T404 691Q404 655 382 632T322 608Q286 608 263 631T240 690Q240 727 263 750T322 774ZM515 774Q551 774 574 751T597 691Q597 655 574 632T515 608Q479 608 456 631T433
690Q433 727 456 750T515 774Z" />
<glyph unicode="&#xf0;" horiz-adv-x="611" d="M227 751Q338 711 420 641T547 482T592 294Q592 202 554 134T447 28T284 -10Q203 -10 142 19T48 102T15 226Q15 294 43 343T122 419T242 447Q287 447 328 434T394 398Q391 453 350 503T241 596T92 670L227 751ZM291
313Q252 313 230 292T208 236Q208 200 230 179T291 157Q330 157 353 178T376 235Q376 271 353 292T291 313ZM82 549L512 746L547 672L117 477L82 549Z" />
<glyph unicode="&#xf1;" horiz-adv-x="678" d="M430 287Q430 328 409 351T352 375Q311 374 287 345T263 269H217Q217 358 243 422T319 519T436 552Q494 552 538 527T607 455T632 345V0H430V287ZM61 544H263V0H61V544ZM550 763Q550 707 539 670T506 615T447 596Q424
596 405 602T369 617T339 632T314 639Q300 639 294 629T286 599H177Q177 654 187 691T221 747T280 766Q303 766 322 760T359 745T389 730T412 724Q428 724 434 734T442 763H550Z" />
<glyph unicode="&#xf2;" horiz-adv-x="643" d="M322 551Q413 551 481 517T586 420T624 272Q624 188 587 125T481 28T322 -7Q230 -7 162 27T57 125T19 272Q19 357 56 419T162 516T322 551ZM322 391Q292 391 270 376T235 334T223 270Q223 233 235 206T269 164T322
149Q352 149 374 164T408 206T420 270Q420 306 408 333T374 376T322 391ZM306 775L415 605L282 595L147 717L306 775Z" />
<glyph unicode="&#xf3;" horiz-adv-x="643" d="M322 551Q413 551 481 517T586 420T624 272Q624 188 587 125T481 28T322 -7Q230 -7 162 27T57 125T19 272Q19 357 56 419T162 516T322 551ZM322 391Q292 391 270 376T235 334T223 270Q223 233 235 206T269 164T322
149Q352 149 374 164T408 206T420 270Q420 306 408 333T374 376T322 391ZM348 775L506 717L353 595L221 605L348 775Z" />
<glyph unicode="&#xf4;" horiz-adv-x="643" d="M322 551Q413 551 481 517T586 420T624 272Q624 188 587 125T481 28T322 -7Q230 -7 162 27T57 125T19 272Q19 357 56 419T162 516T322 551ZM322 391Q292 391 270 376T235 334T223 270Q223 233 235 206T269 164T322
149Q352 149 374 164T408 206T420 270Q420 306 408 333T374 376T322 391ZM235 766H408L518 609H384L271 734H372L259 609H125L235 766Z" />
<glyph unicode="&#xf5;" horiz-adv-x="643" d="M322 551Q413 551 481 517T586 420T624 272Q624 188 587 125T481 28T322 -7Q230 -7 162 27T57 125T19 272Q19 357 56 419T162 516T322 551ZM322 391Q292 391 270 376T235 334T223 270Q223 233 235 206T269 164T322
149Q352 149 374 164T408 206T420 270Q420 306 408 333T374 376T322 391ZM515 763Q515 707 504 670T471 615T412 596Q389 596 370 602T334 617T304 632T279 639Q265 639 259 629T251 599H142Q142 654 152 691T186 747T245 766Q268 766 287 760T324 745T354 730T377
724Q393 724 399 734T407 763H515Z" />
<glyph unicode="&#xf6;" horiz-adv-x="643" d="M322 551Q413 551 481 517T586 420T624 272Q624 188 587 125T481 28T322 -7Q230 -7 162 27T57 125T19 272Q19 357 56 419T162 516T322 551ZM322 391Q292 391 270 376T235 334T223 270Q223 233 235 206T269 164T322
149Q352 149 374 164T408 206T420 270Q420 306 408 333T374 376T322 391ZM223 774Q259 774 282 751T305 691Q305 655 282 632T223 608Q187 608 164 632T141 691Q141 727 164 750T223 774ZM420 774Q456 774 479 751T502 691Q502 655 479 632T420 608Q384 608 361
632T338 691Q338 727 361 750T420 774Z" />
<glyph unicode="&#xf7;" horiz-adv-x="515" d="M31 391H484V265H31V391ZM258 592Q295 592 318 569T342 507Q342 470 319 446T258 422Q221 422 197 446T173 507Q173 545 197 568T258 592ZM258 233Q295 233 318 210T342 148Q342 111 319 87T258 63Q221 63 197 87T173
148Q173 186 197 209T258 233Z" />
<glyph unicode="&#xf8;" horiz-adv-x="643" d="M322 551Q413 551 481 517T586 420T624 272Q624 188 587 125T481 28T322 -7Q230 -7 162 27T57 125T19 272Q19 357 56 419T162 516T322 551ZM322 407Q288 407 263 390T224 342T210 270Q210 228 224 197T263 149T322
132Q356 132 381 149T420 197T434 270Q434 311 420 342T381 390T322 407ZM521 627H608L127 -83H40L521 627Z" />
<glyph unicode="&#xf9;" horiz-adv-x="668" d="M248 256Q248 216 268 193T321 169Q360 170 382 199T405 275H451Q451 185 425 122T352 25T238 -9Q181 -9 138 17T70 89T46 199V544H248V256ZM405 544H607V0H405V544ZM318 775L427 605L294 595L159 717L318 775Z" />
<glyph unicode="&#xfa;" horiz-adv-x="668" d="M248 256Q248 216 268 193T321 169Q360 170 382 199T405 275H451Q451 185 425 122T352 25T238 -9Q181 -9 138 17T70 89T46 199V544H248V256ZM405 544H607V0H405V544ZM361 775L519 717L366 595L234 605L361 775Z" />
<glyph unicode="&#xfb;" horiz-adv-x="668" d="M248 256Q248 216 268 193T321 169Q360 170 382 199T405 275H451Q451 185 425 122T352 25T238 -9Q181 -9 138 17T70 89T46 199V544H248V256ZM405 544H607V0H405V544ZM248 766H421L531 609H397L284 734H385L272 609H138L248
766Z" />
<glyph unicode="&#xfc;" horiz-adv-x="668" d="M248 256Q248 216 268 193T321 169Q360 170 382 199T405 275H451Q451 185 425 122T352 25T238 -9Q181 -9 138 17T70 89T46 199V544H248V256ZM405 544H607V0H405V544ZM236 774Q272 774 295 751T318 691Q318 655 295
632T236 608Q200 608 177 632T154 691Q154 727 177 750T236 774ZM433 774Q469 774 492 751T515 691Q515 655 492 632T433 608Q397 608 374 632T351 691Q351 727 374 750T433 774Z" />
<glyph unicode="&#xfd;" horiz-adv-x="605" d="M385 -46Q353 -126 297 -164T159 -203Q109 -203 67 -189T-16 -143L68 -8Q104 -39 141 -39Q162 -39 176 -31T200 -4L210 15L-15 544H192L311 211L412 544H613L385 -46ZM329 775L487 717L334 595L202 605L329 775Z" />
<glyph unicode="&#xfe;" horiz-adv-x="688" d="M268 481Q295 515 333 533T417 551Q493 551 549 516T637 418T669 269Q669 186 639 124T553 28T422 -7Q374 -7 335 11T268 64V-194H66V742H268V481ZM366 395Q337 395 315 380T281 338T268 274Q268 238 280 211T315
168T366 153Q396 153 418 168T453 210T465 274Q465 310 453 337T419 380T366 395Z" />
<glyph unicode="&#xff;" horiz-adv-x="605" d="M385 -46Q353 -126 297 -164T159 -203Q109 -203 67 -189T-16 -143L68 -8Q104 -39 141 -39Q162 -39 176 -31T200 -4L210 15L-15 544H192L311 211L412 544H613L385 -46ZM204 774Q240 774 263 751T286 691Q286 655 263
632T204 608Q168 608 145 632T122 691Q122 727 145 750T204 774ZM401 774Q437 774 460 751T483 691Q483 655 460 632T401 608Q365 608 342 632T319 691Q319 727 342 750T401 774Z" />
<glyph unicode="&#x2013;" horiz-adv-x="409" d="M0 371H409V245H0V371Z" />
<glyph unicode="&#x2014;" horiz-adv-x="627" d="M0 371H627V245H0V371Z" />
<glyph unicode="&#x2018;" horiz-adv-x="254" d="M80 622Q144 625 173 597T202 530Q202 489 176 463T107 436Q71 436 43 460T14 529Q14 550 21 568T39 603L128 742H222L136 531L80 622Z" />
<glyph unicode="&#x2019;" horiz-adv-x="254" d="M156 556Q93 553 64 581T34 648Q34 690 61 716T129 742Q166 742 194 719T222 649Q222 628 215 610T197 575L109 436H14L100 648L156 556Z" />
<glyph unicode="&#x201a;" horiz-adv-x="254" d="M156 -6Q93 -9 64 19T34 86Q34 128 61 154T129 180Q166 180 194 157T222 87Q222 66 215 48T197 13L109 -126H14L100 86L156 -6Z" />
<glyph unicode="&#x201c;" horiz-adv-x="458" d="M80 622Q144 625 173 597T202 530Q202 489 176 463T107 436Q71 436 43 460T14 529Q14 550 21 568T39 603L128 742H222L136 531L80 622ZM283 622Q348 625 376 597T405 530Q405 489 379 463T311 436Q274 436 246
460T218 529Q218 550 225 568T243 603L331 742H426L340 531L283 622Z" />
<glyph unicode="&#x201d;" horiz-adv-x="458" d="M156 556Q93 553 64 581T34 648Q34 690 61 716T129 742Q166 742 194 719T222 649Q222 628 215 610T197 575L109 436H14L100 648L156 556ZM360 556Q297 553 268 581T238 648Q238 690 265 716T333 742Q370 742 398
719T426 649Q426 628 419 610T401 575L313 436H218L304 648L360 556Z" />
<glyph unicode="&#x201e;" horiz-adv-x="458" d="M156 -6Q93 -9 64 19T34 86Q34 128 61 154T129 180Q166 180 194 157T222 87Q222 66 215 48T197 13L109 -126H14L100 86L156 -6ZM360 -6Q297 -9 268 19T238 86Q238 128 265 154T333 180Q370 180 398 157T426 87Q426
66 419 48T401 13L313 -126H218L304 86L360 -6Z" />
<glyph unicode="&#x2022;" horiz-adv-x="350" d="M174 421Q237 421 276 382T316 280Q316 217 277 178T174 138Q113 138 73 177T33 280Q33 343 73 382T174 421Z" />
<glyph unicode="&#x2039;" horiz-adv-x="283" d="M114 459H276L170 270L276 80H114L-9 270L114 459Z" />
<glyph unicode="&#x203a;" horiz-adv-x="283" d="M169 80H7L113 269L7 459H169L292 269L169 80Z" />
</font>
</defs>
</svg>
